<?xml version="1.0" encoding="utf-8"?>
<!-- Generator: Adobe Illustrator 19.0.0, SVG Export Plug-In . SVG Version: 6.00 Build 0)  -->
<svg version="1.1" id="Layer_1" xmlns="http://www.w3.org/2000/svg" xmlns:xlink="http://www.w3.org/1999/xlink" x="0px" y="0px"
	 viewBox="0 0 800 600" style="enable-background:new 0 0 800 600;" xml:space="preserve">
<style type="text/css">
	.st0{opacity:0.47;fill:url(#XMLID_25_);stroke:url(#XMLID_30_);stroke-miterlimit:10;enable-background:new    ;}
	.st1{fill:url(#XMLID_32_);stroke:url(#XMLID_33_);stroke-width:6;stroke-miterlimit:10;}
	.st2{fill:#595850;stroke:#000000;stroke-width:4;stroke-miterlimit:10;}
	.st3{fill:#F2F2F2;stroke:#000000;stroke-width:6;stroke-miterlimit:10;}
	.st4{fill:#CCCCCC;stroke:#000000;stroke-width:6;stroke-miterlimit:10;}
	.st5{fill:none;stroke:#4D4D4D;stroke-width:12;stroke-miterlimit:10;}
	.st6{fill:none;stroke:#4C4C4C;stroke-width:2;stroke-miterlimit:10;}
</style>
<linearGradient id="XMLID_25_" gradientUnits="userSpaceOnUse" x1="206.125" y1="108.675" x2="425.275" y2="327.825" gradientTransform="matrix(1 0 0 -1 0 600)">
	<stop  offset="0.2688" style="stop-color:#FFD940"/>
	<stop  offset="1" style="stop-color:#F3F6D6;stop-opacity:0.8"/>
</linearGradient>
<linearGradient id="XMLID_30_" gradientUnits="userSpaceOnUse" x1="231.4" y1="302.5385" x2="568.1118" y2="302.5385" gradientTransform="matrix(1 0 0 -1 0 600)">
	<stop  offset="0" style="stop-color:#FFD940"/>
	<stop  offset="4.694998e-002" style="stop-color:#FCDF60;stop-opacity:0.9906"/>
	<stop  offset="0.1046" style="stop-color:#FAE57F;stop-opacity:0.9791"/>
	<stop  offset="0.1698" style="stop-color:#F8EB9B;stop-opacity:0.966"/>
	<stop  offset="0.2436" style="stop-color:#F6EFB1;stop-opacity:0.9513"/>
	<stop  offset="0.3297" style="stop-color:#F5F2C2;stop-opacity:0.9341"/>
	<stop  offset="0.4361" style="stop-color:#F4F4CD;stop-opacity:0.9128"/>
	<stop  offset="0.5854" style="stop-color:#F3F6D4;stop-opacity:0.8829"/>
	<stop  offset="1" style="stop-color:#F3F6D6;stop-opacity:0.8"/>
</linearGradient>
<polygon id="XMLID_3_" class="st0" points="567.1,517.1 501.3,517.1 231.9,517.1 231.9,78.8 "/>
<linearGradient id="XMLID_32_" gradientUnits="userSpaceOnUse" x1="596" y1="496" x2="204" y2="104" gradientTransform="matrix(1 0 0 -1 0 600)">
	<stop  offset="1.076729e-007" style="stop-color:#FFFDA4"/>
	<stop  offset="0.1629" style="stop-color:#FEFCAA;stop-opacity:0.9492"/>
	<stop  offset="0.3702" style="stop-color:#FAFAB9;stop-opacity:0.8847"/>
	<stop  offset="0.6006" style="stop-color:#F4F6D3;stop-opacity:0.8129"/>
	<stop  offset="0.6219" style="stop-color:#F3F6D6;stop-opacity:0.8063"/>
</linearGradient>
<radialGradient id="XMLID_33_" cx="400" cy="300" r="200.5892" gradientTransform="matrix(1 0 0 -1 0 600)" gradientUnits="userSpaceOnUse">
	<stop  offset="0" style="stop-color:#FFFFFF"/>
	<stop  offset="1" style="stop-color:#000000"/>
</radialGradient>
<rect id="XMLID_1_" x="229.2" y="78.8" class="st1" width="341.6" height="442.4"/>
<rect id="XMLID_2_" x="570.8" y="92.6" class="st2" width="17.1" height="415.1"/>
<g id="XMLID_6_">
	<ellipse id="XMLID_7_" class="st3" cx="262.8" cy="132" rx="14.3" ry="14.8"/>
	<ellipse id="XMLID_13_" class="st3" cx="262.8" cy="200" rx="14.3" ry="14.8"/>
	<ellipse id="XMLID_14_" class="st3" cx="262.8" cy="264" rx="14.3" ry="14.8"/>
	<ellipse id="XMLID_15_" class="st3" cx="262.8" cy="332" rx="14.3" ry="14.8"/>
	<ellipse id="XMLID_16_" class="st3" cx="262.8" cy="402" rx="14.3" ry="14.8"/>
	<ellipse id="XMLID_17_" class="st3" cx="262.8" cy="470" rx="14.3" ry="14.8"/>
</g>
<path id="XMLID_4_" class="st4" d="M262.1,139.5h-49.7c-2.8,0-5-2.3-5-5v-5c0-2.8,2.3-5,5-5h49.7c2.8,0,5,2.3,5,5v5
	C267.1,137.2,264.8,139.5,262.1,139.5z"/>
<path id="XMLID_5_" class="st4" d="M262.1,207.5h-49.7c-2.8,0-5-2.3-5-5v-5c0-2.8,2.3-5,5-5h49.7c2.8,0,5,2.3,5,5v5
	C267.1,205.2,264.8,207.5,262.1,207.5z"/>
<path id="XMLID_8_" class="st4" d="M262.1,271.5h-49.7c-2.8,0-5-2.3-5-5v-5c0-2.8,2.3-5,5-5h49.7c2.8,0,5,2.3,5,5v5
	C267.1,269.2,264.8,271.5,262.1,271.5z"/>
<path id="XMLID_9_" class="st4" d="M262.1,339.5h-49.7c-2.8,0-5-2.3-5-5v-5c0-2.8,2.3-5,5-5h49.7c2.8,0,5,2.3,5,5v5
	C267.1,337.2,264.8,339.5,262.1,339.5z"/>
<path id="XMLID_10_" class="st4" d="M262.1,409.5h-49.7c-2.8,0-5-2.3-5-5v-5c0-2.8,2.3-5,5-5h49.7c2.8,0,5,2.3,5,5v5
	C267.1,407.2,264.8,409.5,262.1,409.5z"/>
<path id="XMLID_11_" class="st4" d="M262.1,477.5h-49.7c-2.8,0-5-2.3-5-5v-5c0-2.8,2.3-5,5-5h49.7c2.8,0,5,2.3,5,5v5
	C267.1,475.2,264.8,477.5,262.1,477.5z"/>
<line id="XMLID_12_" class="st5" x1="302" y1="145" x2="452" y2="145"/>
<line id="XMLID_18_" class="st5" x1="302" y1="209" x2="452" y2="209"/>
<line id="XMLID_19_" class="st5" x1="302" y1="272" x2="452" y2="272"/>
<line id="XMLID_20_" class="st5" x1="302" y1="336" x2="452" y2="336"/>
<line id="XMLID_21_" class="st5" x1="302" y1="399" x2="452" y2="399"/>
<line id="XMLID_22_" class="st5" x1="302" y1="463" x2="452" y2="463"/>
<line id="XMLID_24_" class="st6" x1="212" y1="134" x2="263" y2="134"/>
<line id="XMLID_26_" class="st6" x1="212" y1="266" x2="263" y2="266"/>
<line id="XMLID_27_" class="st6" x1="212" y1="202" x2="263" y2="202"/>
<line id="XMLID_28_" class="st6" x1="212" y1="334" x2="263" y2="334"/>
<line id="XMLID_29_" class="st6" x1="212" y1="404" x2="263" y2="404"/>
<line id="XMLID_31_" class="st6" x1="212" y1="472" x2="263" y2="472"/>
</svg>
